# xmcd
# 
# Track frame offsets:
#     150
#     18688
#     40867
#     54255
#     76029
#     95475
#     109128
#     132617
#     146772
#     170106
#     185170
#     202397
# 
# Disc length: 2912
# 
# Revision: 0
# Processed by: cddbd v1.5.2PL0 Copyright (c) Steve Scherf et al.
# Submitted via: fre:ac v1.0.31
# 
DISCID=b50b5e0c
DTITLE=In the Swing - Route 66
DYEAR=2014
DGENRE=Swing
TTITLE0=Route 66
TTITLE1=Take 5
TTITLE2=You'd Be So Nice To Come Home To
TTITLE3=Spring Can Really Hang You Up The Most
TTITLE4=Rhode Island
TTITLE5=Up Jumped Spring
TTITLE6=Round Midnight
TTITLE7=There Will Never Be Another You
TTITLE8=Mr. Paganini
TTITLE9=Day By Day
TTITLE10=Embraceable You
TTITLE11=Four
EXTD=
EXTT0=
EXTT1=
EXTT2=
EXTT3=
EXTT4=
EXTT5=
EXTT6=
EXTT7=
EXTT8=
EXTT9=
EXTT10=
EXTT11=
PLAYORDER=
